# xmcd
#
# Track frame offsets:
#	150
#	19362
#	33550
#	47355
#	63487
#	80137
#	96625
#	115062
#	128445
#	146232
#	162417
#	178350
#
# Disc length: 2591 seconds
#
# Revision: 3
# Processed by: cddbd v1.5.2PL0 Copyright (c) Steve Scherf et al.
# Submitted via: EasyCDDAExtractor 15.3.0.1
#
DISCID=af0a1d0c
DTITLE=Yolandita Monge - Mis Canciones Preferidas
DYEAR=1986
DGENRE=Latin
TTITLE0=El Amor
TTITLE1=Seras Mio
TTITLE2=Aceptame Como Soy
TTITLE3=Al Ritmo De La Fantasia
TTITLE4=Una Historia De Amor (Cedo Para Mi)
TTITLE5=Si
TTITLE6=Te Veo Pasar (Should've Known Better)
TTITLE7=Siempre Tu
TTITLE8=Tanto Amor
TTITLE9=La Distancia
TTITLE10=Como Lo Hago Yo
TTITLE11=Perdoname Otra Vez
EXTD=
EXTT0=
EXTT1=
EXTT2=
EXTT3=
EXTT4=
EXTT5=
EXTT6=
EXTT7=
EXTT8=
EXTT9=
EXTT10=
EXTT11=
PLAYORDER=
